# xmcd CD database file
#
# Track frame offsets:
#	150
#	28265
#	56463
#	78514
#	99714
#	118423
#	143637
#	167693
#	186942
#	208906
#	247859
#
# Disc length: 3488 seconds
#
# Revision: 0
# Processed by: cddbd v1.5.2PL0 Copyright (c) Steve Scherf et al.
# Submitted via: CDex 1.70beta2
#
DISCID=9c0d9e0b
DTITLE=The Taylor/Fidyk Big Band - A Perfect Match
DYEAR=2003
DGENRE=Jazz
TTITLE0=The Gorillaman Blues
TTITLE1=Lullaby of Birdland
TTITLE2=Full Count
TTITLE3=Chelsea Bridge
TTITLE4=Brush Taps
TTITLE5=Granada Smoothie
TTITLE6=Boptitude Test
TTITLE7=After You've Gone
TTITLE8=Soft Skies
TTITLE9=Kansas City
TTITLE10=Data Track
EXTD=YEAR: 2003
EXTT0=
EXTT1=
EXTT2=
EXTT3=
EXTT4=
EXTT5=
EXTT6=
EXTT7=
EXTT8=
EXTT9=
EXTT10=
PLAYORDER=
